# xmcd
#
# Track frame offsets:
#	150
#	18577
#	39660
#	53772
#	72667
#	79778
#	90020
#	105462
#	115917
#	132131
#	157561
#	173589
#	186422
#	198309
#
# Disc length: 3275 seconds
#
# Revision: 1
# Processed by: cddbd v1.5.2PL0 Copyright (c) Steve Scherf et al.
# Submitted via: audiograbber 1.83.01
#
DISCID=a90cc90e
DTITLE=Big Daddy and The Money Shakers - Swang Thang
DYEAR=2001
DGENRE=Blues
TTITLE0=All Yer Lovin'
TTITLE1=Let's Go Fly
TTITLE2=I May Never
TTITLE3=#9 Train
TTITLE4=Rawhide
TTITLE5=Tax Jive
TTITLE6=Let's Get Drunk
TTITLE7=Long Time Baby
TTITLE8=Sick and Tired
TTITLE9=Three Hours Past Midnight
TTITLE10=Can't Judge A Book
TTITLE11=Swang Thang
TTITLE12=V-8 Chevrolet
TTITLE13=Let's Go Cruisin'
EXTD=
EXTT0=
EXTT1=
EXTT2=
EXTT3=
EXTT4=
EXTT5=
EXTT6=
EXTT7=
EXTT8=
EXTT9=
EXTT10=
EXTT11=
EXTT12=
EXTT13=
PLAYORDER=
